<svg xmlns="http://www.w3.org/2000/svg" version="1.1" xmlns:xlink="http://www.w3.org/1999/xlink" xmlns:svgjs="http://svgjs.com/svgjs" width="1920" height="1080" preserveAspectRatio="none" viewBox="0 0 1920 1080"><g mask="url(&quot;#SvgjsMask1740&quot;)" fill="none"><use xlink:href="#SvgjsG1749" transform="translate(0, 0)" fill="rgba(84, 122, 158, 1)"></use><use xlink:href="#SvgjsG1749" transform="translate(0, 408)" fill="rgba(84, 122, 158, 1)"></use><use xlink:href="#SvgjsG1749" transform="translate(0, 816)" fill="rgba(84, 122, 158, 1)"></use><use xlink:href="#SvgjsG1749" transform="translate(408, 0)" fill="rgba(84, 122, 158, 1)"></use><use xlink:href="#SvgjsG1749" transform="translate(408, 408)" fill="rgba(84, 122, 158, 1)"></use><use xlink:href="#SvgjsG1749" transform="translate(408, 816)" fill="rgba(84, 122, 158, 1)"></use><use xlink:href="#SvgjsG1749" transform="translate(816, 0)" fill="rgba(84, 122, 158, 1)"></use><use xlink:href="#SvgjsG1749" transform="translate(816, 408)" fill="rgba(84, 122, 158, 1)"></use><use xlink:href="#SvgjsG1749" transform="translate(816, 816)" fill="rgba(84, 122, 158, 1)"></use><use xlink:href="#SvgjsG1749" transform="translate(1224, 0)" fill="rgba(84, 122, 158, 1)"></use><use xlink:href="#SvgjsG1749" transform="translate(1224, 408)" fill="rgba(84, 122, 158, 1)"></use><use xlink:href="#SvgjsG1749" transform="translate(1224, 816)" fill="rgba(84, 122, 158, 1)"></use><use xlink:href="#SvgjsG1749" transform="translate(1632, 0)" fill="rgba(84, 122, 158, 1)"></use><use xlink:href="#SvgjsG1749" transform="translate(1632, 408)" fill="rgba(84, 122, 158, 1)"></use><use xlink:href="#SvgjsG1749" transform="translate(1632, 816)" fill="rgba(84, 122, 158, 1)"></use></g><defs><mask id="SvgjsMask1740"><rect width="1920" height="1080" fill="#ffffff"></rect></mask><g id="SvgjsG1747"><path d="M4.83 7.808l-1.579 1.253-2.019 1.547c-0.576 0.452-1.048-0.092-1.048-0.092-0.448-0.588 0.067-0.973 0.066-0.973l2.517-1.968s0.275-0.287 0.999-0.081l1.064 0.315m2.949-2.516c-0.79 0-1.427-0.637-1.427-1.427s0.637-1.434 1.427-1.433 1.432 0.643 1.432 1.433-0.641 1.427-1.432 1.427M4.24 13.121a0.765 0.765 0 0 0-0.765-0.765 0.764 0.764 0 0 0-0.765 0.765 0.764 0.764 0 0 0 0.765 0.765 0.764 0.764 0 0 0 0.765-0.765m7.083 0a0.765 0.765 0 0 0-0.765-0.765c-0.421 0-0.763 0.342-0.763 0.765a0.764 0.764 0 1 0 1.528 0m-8.782-1.504c-0.098-0.271-0.14-0.566-0.073-0.865a1.55 1.55 0 0 1 0.508-0.824l10.582-8.423C13.816 1.316 14.132 1.2 14.476 1.2A1.522 1.522 0 0 1 16 2.726c0 0.492-0.224 0.928-0.58 1.209-0.126 0.11-0.31 0.096-0.417-0.031a0.298 0.298 0 0 1 0.034-0.427c0.228-0.167 0.372-0.442 0.372-0.751 0-0.515-0.419-0.934-0.932-0.934-0.219 0-0.411 0.073-0.569 0.19L10.833 4.432l-1.609 4.656 0.976 2.319c0.114-0.026 0.236-0.047 0.358-0.047 0.975 0 1.764 0.79 1.763 1.761 0 0.977-0.788 1.762-1.763 1.762a1.758 1.758 0 0 1-1.76-1.762 1.744 1.744 0 0 1 0.828-1.49L8.923 9.952l-0.059 0.179c-0.214 0.659-0.926 1.019-1.584 0.8l-3.266-1.077-0.638 0.509a0.95 0.95 0 0 0-0.316 0.507c-0.043 0.19-0.012 0.373 0.051 0.537 0.114-0.022 0.24-0.047 0.364-0.048 0.971 0 1.76 0.79 1.76 1.762 0 0.978-0.789 1.762-1.76 1.762s-1.764-0.785-1.764-1.762c0.001-0.637 0.323-1.196 0.83-1.504"></path></g><g id="SvgjsG1745"><path d="M8 14.66l5.904-5.908c1.836-1.836 1.8-4.512 0.132-6.174A4.268 4.268 0 0 0 8 2.58a4.264 4.264 0 0 0-6.03-0.02C0.3 4.24 0.26 6.92 2.1 8.744L8 14.66z"></path></g><g id="SvgjsG1742"><path d="M5.534 5.272L8.008 0l2.474 5.272 5.534 0.845-4.004 4.103 0.945 5.795L8.008 13.279 3.06 16.015l0.945-5.795L0.001 6.117z"></path></g><g id="SvgjsG1748"><path d="M7.45 12.652S6.4 11.121 3.725 11.121C1.274 11.121 0 11.833 0 11.833V1.937s1.274-0.712 3.725-0.729C6.4 1.19 7.45 2.756 7.45 2.756V12.652z m1.087 0s1.05-1.531 3.725-1.531c2.451 0 3.725 0.712 3.725 0.713V1.937s-1.274-0.712-3.725-0.729c-2.675-0.017-3.725 1.548-3.725 1.548v9.896z"></path><path d="M8.012 15.733S6.4 13.411 3.725 13.411c-2.451 0-3.725 0.712-3.725 0.712v-1.186s1.274-0.712 3.725-0.729c2.675-0.018 4.287 2.34 4.287 2.34V15.733z m0 0s1.612-2.323 4.287-2.323c2.451 0 3.725 0.712 3.725 0.712v-1.185s-1.274-0.712-3.725-0.729c-2.675-0.019-4.287 2.339-4.287 2.339v1.185z"></path></g><g id="SvgjsG1741"><path d="M-0.009 12.124L8 3.609l8.009 8.515z"></path><path d="M1.843 6.545L8 0l6.157 6.545z m4.761 0.502h2.792v8.955H6.604z"></path></g><g id="SvgjsG1743"><path d="M1.811 9.858c1.002 0 1.815-0.813 1.815-1.816 0-1-0.813-1.811-1.815-1.81C0.811 6.232 0 7.042 0 8.043c0 1.002 0.811 1.815 1.811 1.815m10.166 3.116c0.084-0.057 0.196-0.041 0.258 0.042l0.335 0.463c0.057 0.08 0.038 0.196-0.041 0.258L10.068 15.525c-0.08 0.059-0.196 0.041-0.258-0.038l-0.336-0.466c-0.057-0.08-0.039-0.194 0.041-0.258L11.976 12.974zM9.193 10.668l-0.977-1.712-0.512 0.374 0.976 1.722 0.513-0.384zM6.914 6.668L3.117 0l-0.727 0.004L6.396 7.046l0.518-0.378z"></path><path d="M10.49 10.196c0.215-0.155 0.461-0.276 0.742-0.277l3.528 0.005c0.685 0 1.24 0.557 1.24 1.24a1.238 1.238 0 0 1-1.24 1.24l-2.943-0.005L8.056 15.052c-1.324 0.954-2.128-0.094-2.128-0.093L2.978 12.006c-0.493-0.594-0.388-1.722 0.205-2.219l4.083-2.909a0.966 0.966 0 0 1 1.352 0.116c0.34 0.406 0.286 1.011-0.121 1.352l-2.613 1.914L7.762 12.114l2.728-1.918z"></path></g><g id="SvgjsG1746"><path d="M1.704 6.537a0.658 0.658 0 1 0 1.316 0 0.658 0.658 0 1 0-1.316 0"></path><path d="M11.364 4.442a0.658 0.658 0 1 0 1.316 0 0.658 0.658 0 1 0-1.316 0"></path><path d="M12.05 8.032l-0.155 0.745 0.766 0.196 0.66-1.216 2.249-0.489L15.393 6.455l-0.772 0.168c0.243-0.579-0.162-0.817-0.162-0.816L12.839 4.738l-0.651 0.464-0.632 0.965s-0.305 0.466-0.019 0.715l0.03 0.403-7.612 1.65-0.14-0.377c0.157-0.345-0.314-0.644-0.314-0.644L2.527 7.298 1.741 7.145 0.709 8.789s-0.27 0.384 0.191 0.81l-0.772 0.168 0.177 0.813 2.248-0.487 1.105 0.833 0.616-0.495-0.45-0.614 8.226-1.785z m-8.828 1.063l-0.862-0.414 0.213-0.658 0.866 0.408 0.211 0.572-0.427 0.093z m9.076-1.968l-0.428 0.093-0.044-0.608 0.619-0.73 0.467 0.511-0.614 0.734z"></path><path d="M8.651 12.262V9.644l-0.802-0.701-0.802 0.701v2.618h1.603z"></path></g><g id="SvgjsG1744"><path d="M0.012 7.384c0 0.014 0.006 0.028 0.007 0.042v-0.083c-0.002 0.013-0.007 0.026-0.007 0.041z"></path><path d="M4.128 6.119a0.536 0.536 0 1 0 1.071 0 0.536 0.536 0 1 0-1.071 0"></path><path d="M10.577 8.79zM13.953 12.705c-0.71 0-1.559-0.8-2.458-1.646a78.836 78.836 0 0 0-0.298-0.28l-0.305-1.305a0.574 0.574 0 0 0-1.133 0.085c-0.896-0.654-1.903-1.144-3.098-1.144v-5.147L3.229 1.338l-3.217 1.931v11.581h0.643V13.992h2.146v0.857h0.643V13.992h2.574v0.857h0.643V9.702c1.516 0 2.755 1.166 3.953 2.294 1.091 1.026 2.12 1.996 3.339 1.996h0.215v0.857h0.643V13.992h0.643v-1.287h-1.501zM2.8 13.562H0.657v-0.857h2.144v0.857z m0-1.287H0.657v-0.858h2.144v0.858z m0-1.287H0.657v-0.858h2.144v0.858z m3.217-2.574H5.357l-0.255-1.09a0.575 0.575 0 0 0-1.121 0.262l0.194 0.829H0.657V3.697h5.361v4.718z"></path></g><g id="SvgjsG1749"><use xlink:href="#SvgjsG1741" transform="translate(0, 0) scale(1.7)" fill="rgba(84, 122, 158, 1)"></use><use xlink:href="#SvgjsG1741" transform="translate(0, 40.8) scale(1.7)" fill="rgba(84, 122, 158, 1)"></use><use xlink:href="#SvgjsG1742" transform="translate(0, 81.6) scale(1.7)" fill="rgba(84, 122, 158, 1)"></use><use xlink:href="#SvgjsG1743" transform="translate(0, 122.39999999999999) scale(1.7)" fill="rgba(84, 122, 158, 1)"></use><use xlink:href="#SvgjsG1744" transform="translate(0, 163.2) scale(1.7)" fill="rgba(84, 122, 158, 1)"></use><use xlink:href="#SvgjsG1743" transform="translate(0, 204) scale(1.7)" fill="rgba(84, 122, 158, 1)"></use><use xlink:href="#SvgjsG1745" transform="translate(0, 244.79999999999998) scale(1.7)" fill="rgba(84, 122, 158, 1)"></use><use xlink:href="#SvgjsG1744" transform="translate(0, 285.59999999999997) scale(1.7)" fill="rgba(84, 122, 158, 1)"></use><use xlink:href="#SvgjsG1745" transform="translate(0, 326.4) scale(1.7)" fill="rgba(84, 122, 158, 1)"></use><use xlink:href="#SvgjsG1743" transform="translate(0, 367.2) scale(1.7)" fill="rgba(84, 122, 158, 1)"></use><use xlink:href="#SvgjsG1746" transform="translate(40.8, 0) scale(1.7)" fill="rgba(84, 122, 158, 1)"></use><use xlink:href="#SvgjsG1744" transform="translate(40.8, 40.8) scale(1.7)" fill="rgba(84, 122, 158, 1)"></use><use xlink:href="#SvgjsG1745" transform="translate(40.8, 81.6) scale(1.7)" fill="rgba(84, 122, 158, 1)"></use><use xlink:href="#SvgjsG1744" transform="translate(40.8, 122.39999999999999) scale(1.7)" fill="rgba(84, 122, 158, 1)"></use><use xlink:href="#SvgjsG1742" transform="translate(40.8, 163.2) scale(1.7)" fill="rgba(84, 122, 158, 1)"></use><use xlink:href="#SvgjsG1745" transform="translate(40.8, 204) scale(1.7)" fill="rgba(84, 122, 158, 1)"></use><use xlink:href="#SvgjsG1745" transform="translate(40.8, 244.79999999999998) scale(1.7)" fill="rgba(84, 122, 158, 1)"></use><use xlink:href="#SvgjsG1746" transform="translate(40.8, 285.59999999999997) scale(1.7)" fill="rgba(84, 122, 158, 1)"></use><use xlink:href="#SvgjsG1745" transform="translate(40.8, 326.4) scale(1.7)" fill="rgba(84, 122, 158, 1)"></use><use xlink:href="#SvgjsG1741" transform="translate(40.8, 367.2) scale(1.7)" fill="rgba(84, 122, 158, 1)"></use><use xlink:href="#SvgjsG1747" transform="translate(81.6, 0) scale(1.7)" fill="rgba(84, 122, 158, 1)"></use><use xlink:href="#SvgjsG1742" transform="translate(81.6, 40.8) scale(1.7)" fill="rgba(84, 122, 158, 1)"></use><use xlink:href="#SvgjsG1745" transform="translate(81.6, 81.6) scale(1.7)" fill="rgba(84, 122, 158, 1)"></use><use xlink:href="#SvgjsG1748" transform="translate(81.6, 122.39999999999999) scale(1.7)" fill="rgba(84, 122, 158, 1)"></use><use xlink:href="#SvgjsG1743" transform="translate(81.6, 163.2) scale(1.7)" fill="rgba(84, 122, 158, 1)"></use><use xlink:href="#SvgjsG1745" transform="translate(81.6, 204) scale(1.7)" fill="rgba(84, 122, 158, 1)"></use><use xlink:href="#SvgjsG1741" transform="translate(81.6, 244.79999999999998) scale(1.7)" fill="rgba(84, 122, 158, 1)"></use><use xlink:href="#SvgjsG1747" transform="translate(81.6, 285.59999999999997) scale(1.7)" fill="rgba(84, 122, 158, 1)"></use><use xlink:href="#SvgjsG1742" transform="translate(81.6, 326.4) scale(1.7)" fill="rgba(84, 122, 158, 1)"></use><use xlink:href="#SvgjsG1745" transform="translate(81.6, 367.2) scale(1.7)" fill="rgba(84, 122, 158, 1)"></use><use xlink:href="#SvgjsG1741" transform="translate(122.39999999999999, 0) scale(1.7)" fill="rgba(84, 122, 158, 1)"></use><use xlink:href="#SvgjsG1744" transform="translate(122.39999999999999, 40.8) scale(1.7)" fill="rgba(84, 122, 158, 1)"></use><use xlink:href="#SvgjsG1746" transform="translate(122.39999999999999, 81.6) scale(1.7)" fill="rgba(84, 122, 158, 1)"></use><use xlink:href="#SvgjsG1745" transform="translate(122.39999999999999, 122.39999999999999) scale(1.7)" fill="rgba(84, 122, 158, 1)"></use><use xlink:href="#SvgjsG1744" transform="translate(122.39999999999999, 163.2) scale(1.7)" fill="rgba(84, 122, 158, 1)"></use><use xlink:href="#SvgjsG1745" transform="translate(122.39999999999999, 204) scale(1.7)" fill="rgba(84, 122, 158, 1)"></use><use xlink:href="#SvgjsG1742" transform="translate(122.39999999999999, 244.79999999999998) scale(1.7)" fill="rgba(84, 122, 158, 1)"></use><use xlink:href="#SvgjsG1747" transform="translate(122.39999999999999, 285.59999999999997) scale(1.7)" fill="rgba(84, 122, 158, 1)"></use><use xlink:href="#SvgjsG1742" transform="translate(122.39999999999999, 326.4) scale(1.7)" fill="rgba(84, 122, 158, 1)"></use><use xlink:href="#SvgjsG1741" transform="translate(122.39999999999999, 367.2) scale(1.7)" fill="rgba(84, 122, 158, 1)"></use><use xlink:href="#SvgjsG1741" transform="translate(163.2, 0) scale(1.7)" fill="rgba(84, 122, 158, 1)"></use><use xlink:href="#SvgjsG1742" transform="translate(163.2, 40.8) scale(1.7)" fill="rgba(84, 122, 158, 1)"></use><use xlink:href="#SvgjsG1748" transform="translate(163.2, 81.6) scale(1.7)" fill="rgba(84, 122, 158, 1)"></use><use xlink:href="#SvgjsG1743" transform="translate(163.2, 122.39999999999999) scale(1.7)" fill="rgba(84, 122, 158, 1)"></use><use xlink:href="#SvgjsG1748" transform="translate(163.2, 163.2) scale(1.7)" fill="rgba(84, 122, 158, 1)"></use><use xlink:href="#SvgjsG1742" transform="translate(163.2, 204) scale(1.7)" fill="rgba(84, 122, 158, 1)"></use><use xlink:href="#SvgjsG1745" transform="translate(163.2, 244.79999999999998) scale(1.7)" fill="rgba(84, 122, 158, 1)"></use><use xlink:href="#SvgjsG1746" transform="translate(163.2, 285.59999999999997) scale(1.7)" fill="rgba(84, 122, 158, 1)"></use><use xlink:href="#SvgjsG1742" transform="translate(163.2, 326.4) scale(1.7)" fill="rgba(84, 122, 158, 1)"></use><use xlink:href="#SvgjsG1745" transform="translate(163.2, 367.2) scale(1.7)" fill="rgba(84, 122, 158, 1)"></use><use xlink:href="#SvgjsG1742" transform="translate(204, 0) scale(1.7)" fill="rgba(84, 122, 158, 1)"></use><use xlink:href="#SvgjsG1741" transform="translate(204, 40.8) scale(1.7)" fill="rgba(84, 122, 158, 1)"></use><use xlink:href="#SvgjsG1747" transform="translate(204, 81.6) scale(1.7)" fill="rgba(84, 122, 158, 1)"></use><use xlink:href="#SvgjsG1745" transform="translate(204, 122.39999999999999) scale(1.7)" fill="rgba(84, 122, 158, 1)"></use><use xlink:href="#SvgjsG1748" transform="translate(204, 163.2) scale(1.7)" fill="rgba(84, 122, 158, 1)"></use><use xlink:href="#SvgjsG1743" transform="translate(204, 204) scale(1.7)" fill="rgba(84, 122, 158, 1)"></use><use xlink:href="#SvgjsG1746" transform="translate(204, 244.79999999999998) scale(1.7)" fill="rgba(84, 122, 158, 1)"></use><use xlink:href="#SvgjsG1746" transform="translate(204, 285.59999999999997) scale(1.7)" fill="rgba(84, 122, 158, 1)"></use><use xlink:href="#SvgjsG1746" transform="translate(204, 326.4) scale(1.7)" fill="rgba(84, 122, 158, 1)"></use><use xlink:href="#SvgjsG1747" transform="translate(204, 367.2) scale(1.7)" fill="rgba(84, 122, 158, 1)"></use><use xlink:href="#SvgjsG1747" transform="translate(244.79999999999998, 0) scale(1.7)" fill="rgba(84, 122, 158, 1)"></use><use xlink:href="#SvgjsG1745" transform="translate(244.79999999999998, 40.8) scale(1.7)" fill="rgba(84, 122, 158, 1)"></use><use xlink:href="#SvgjsG1741" transform="translate(244.79999999999998, 81.6) scale(1.7)" fill="rgba(84, 122, 158, 1)"></use><use xlink:href="#SvgjsG1743" transform="translate(244.79999999999998, 122.39999999999999) scale(1.7)" fill="rgba(84, 122, 158, 1)"></use><use xlink:href="#SvgjsG1746" transform="translate(244.79999999999998, 163.2) scale(1.7)" fill="rgba(84, 122, 158, 1)"></use><use xlink:href="#SvgjsG1748" transform="translate(244.79999999999998, 204) scale(1.7)" fill="rgba(84, 122, 158, 1)"></use><use xlink:href="#SvgjsG1744" transform="translate(244.79999999999998, 244.79999999999998) scale(1.7)" fill="rgba(84, 122, 158, 1)"></use><use xlink:href="#SvgjsG1744" transform="translate(244.79999999999998, 285.59999999999997) scale(1.7)" fill="rgba(84, 122, 158, 1)"></use><use xlink:href="#SvgjsG1742" transform="translate(244.79999999999998, 326.4) scale(1.7)" fill="rgba(84, 122, 158, 1)"></use><use xlink:href="#SvgjsG1745" transform="translate(244.79999999999998, 367.2) scale(1.7)" fill="rgba(84, 122, 158, 1)"></use><use xlink:href="#SvgjsG1742" transform="translate(285.59999999999997, 0) scale(1.7)" fill="rgba(84, 122, 158, 1)"></use><use xlink:href="#SvgjsG1745" transform="translate(285.59999999999997, 40.8) scale(1.7)" fill="rgba(84, 122, 158, 1)"></use><use xlink:href="#SvgjsG1745" transform="translate(285.59999999999997, 81.6) scale(1.7)" fill="rgba(84, 122, 158, 1)"></use><use xlink:href="#SvgjsG1747" transform="translate(285.59999999999997, 122.39999999999999) scale(1.7)" fill="rgba(84, 122, 158, 1)"></use><use xlink:href="#SvgjsG1747" transform="translate(285.59999999999997, 163.2) scale(1.7)" fill="rgba(84, 122, 158, 1)"></use><use xlink:href="#SvgjsG1748" transform="translate(285.59999999999997, 204) scale(1.7)" fill="rgba(84, 122, 158, 1)"></use><use xlink:href="#SvgjsG1741" transform="translate(285.59999999999997, 244.79999999999998) scale(1.7)" fill="rgba(84, 122, 158, 1)"></use><use xlink:href="#SvgjsG1743" transform="translate(285.59999999999997, 285.59999999999997) scale(1.7)" fill="rgba(84, 122, 158, 1)"></use><use xlink:href="#SvgjsG1744" transform="translate(285.59999999999997, 326.4) scale(1.7)" fill="rgba(84, 122, 158, 1)"></use><use xlink:href="#SvgjsG1746" transform="translate(285.59999999999997, 367.2) scale(1.7)" fill="rgba(84, 122, 158, 1)"></use><use xlink:href="#SvgjsG1744" transform="translate(326.4, 0) scale(1.7)" fill="rgba(84, 122, 158, 1)"></use><use xlink:href="#SvgjsG1742" transform="translate(326.4, 40.8) scale(1.7)" fill="rgba(84, 122, 158, 1)"></use><use xlink:href="#SvgjsG1742" transform="translate(326.4, 81.6) scale(1.7)" fill="rgba(84, 122, 158, 1)"></use><use xlink:href="#SvgjsG1743" transform="translate(326.4, 122.39999999999999) scale(1.7)" fill="rgba(84, 122, 158, 1)"></use><use xlink:href="#SvgjsG1741" transform="translate(326.4, 163.2) scale(1.7)" fill="rgba(84, 122, 158, 1)"></use><use xlink:href="#SvgjsG1745" transform="translate(326.4, 204) scale(1.7)" fill="rgba(84, 122, 158, 1)"></use><use xlink:href="#SvgjsG1741" transform="translate(326.4, 244.79999999999998) scale(1.7)" fill="rgba(84, 122, 158, 1)"></use><use xlink:href="#SvgjsG1745" transform="translate(326.4, 285.59999999999997) scale(1.7)" fill="rgba(84, 122, 158, 1)"></use><use xlink:href="#SvgjsG1746" transform="translate(326.4, 326.4) scale(1.7)" fill="rgba(84, 122, 158, 1)"></use><use xlink:href="#SvgjsG1748" transform="translate(326.4, 367.2) scale(1.7)" fill="rgba(84, 122, 158, 1)"></use><use xlink:href="#SvgjsG1747" transform="translate(367.2, 0) scale(1.7)" fill="rgba(84, 122, 158, 1)"></use><use xlink:href="#SvgjsG1745" transform="translate(367.2, 40.8) scale(1.7)" fill="rgba(84, 122, 158, 1)"></use><use xlink:href="#SvgjsG1747" transform="translate(367.2, 81.6) scale(1.7)" fill="rgba(84, 122, 158, 1)"></use><use xlink:href="#SvgjsG1744" transform="translate(367.2, 122.39999999999999) scale(1.7)" fill="rgba(84, 122, 158, 1)"></use><use xlink:href="#SvgjsG1746" transform="translate(367.2, 163.2) scale(1.7)" fill="rgba(84, 122, 158, 1)"></use><use xlink:href="#SvgjsG1746" transform="translate(367.2, 204) scale(1.7)" fill="rgba(84, 122, 158, 1)"></use><use xlink:href="#SvgjsG1747" transform="translate(367.2, 244.79999999999998) scale(1.7)" fill="rgba(84, 122, 158, 1)"></use><use xlink:href="#SvgjsG1744" transform="translate(367.2, 285.59999999999997) scale(1.7)" fill="rgba(84, 122, 158, 1)"></use><use xlink:href="#SvgjsG1745" transform="translate(367.2, 326.4) scale(1.7)" fill="rgba(84, 122, 158, 1)"></use><use xlink:href="#SvgjsG1744" transform="translate(367.2, 367.2) scale(1.7)" fill="rgba(84, 122, 158, 1)"></use></g></defs></svg>